<?xml version="1.0" encoding="UTF-8"?>
<!DOCTYPE svg PUBLIC "-//W3C//DTD SVG 1.1//EN" "http://www.w3.org/Graphics/SVG/1.1/DTD/svg11.dtd">
<svg xmlns="http://www.w3.org/2000/svg" version="1.1" width="558px" height="558px" style="shape-rendering:geometricPrecision; text-rendering:geometricPrecision; image-rendering:optimizeQuality; fill-rule:evenodd; clip-rule:evenodd" xmlns:xlink="http://www.w3.org/1999/xlink">
<g><path style="opacity:0.938" fill="#000000" d="M 270.5,116.5 C 280.718,115.856 290.718,117.022 300.5,120C 305.624,122.562 310.957,124.562 316.5,126C 321.597,129.433 326.931,132.433 332.5,135C 352.08,148.227 370.247,163.394 387,180.5C 387.635,182.635 387.301,184.635 386,186.5C 375.406,195.549 364.906,204.715 354.5,214C 341.317,223.425 327.65,232.092 313.5,240C 302.485,244.173 291.152,247.006 279.5,248.5C 259.938,246.258 241.938,239.758 225.5,229C 208.677,217.587 193.01,204.754 178.5,190.5C 175.197,189.463 172.697,187.463 171,184.5C 170.333,183.167 170.333,181.833 171,180.5C 180.345,172.098 189.511,163.598 198.5,155C 200.275,153.561 202.275,152.561 204.5,152C 223.571,134.772 245.571,122.939 270.5,116.5 Z M 273.5,137.5 C 278.913,137.229 284.246,137.729 289.5,139C 306.248,144.445 321.582,152.445 335.5,163C 343.427,169.115 351.093,175.448 358.5,182C 340.498,199.992 319.831,213.992 296.5,224C 285.167,227.333 273.833,227.333 262.5,224C 239.142,213.975 218.475,199.975 200.5,182C 216.92,167.178 234.92,154.511 254.5,144C 260.968,141.9 267.302,139.734 273.5,137.5 Z"/></g>
<g><path style="opacity:0.919" fill="#000000" d="M 272.5,146.5 C 273.978,146.238 275.311,146.571 276.5,147.5C 265.354,159.62 263.687,172.953 271.5,187.5C 274.282,190.238 276.949,193.071 279.5,196C 289.814,201.273 300.314,201.773 311,197.5C 311.833,197.833 312.667,198.167 313.5,198.5C 303.29,215.168 288.623,220.668 269.5,215C 253.056,207.055 245.556,193.889 247,175.5C 250.448,161.196 258.948,151.53 272.5,146.5 Z"/></g>
<g><path style="opacity:0.949" fill="#000000" d="M 548.5,174.5 C 549.338,174.842 549.672,175.508 549.5,176.5C 530.93,203.994 512.263,231.494 493.5,259C 448.715,275.036 404.049,291.036 359.5,307C 358.84,323.436 358.173,339.936 357.5,356.5C 349.301,360.432 341.301,364.598 333.5,369C 315.496,380.337 297.163,391.171 278.5,401.5C 259.794,391.153 241.461,380.319 223.5,369C 215.402,365.08 207.402,360.913 199.5,356.5C 198.827,339.936 198.16,323.436 197.5,307C 152.718,291.405 108.051,275.405 63.5,259C 44.8424,231.312 26.0091,203.812 7,176.5C 6.25061,175.365 6.41728,174.365 7.5,173.5C 77.2748,213.324 146.775,253.657 216,294.5C 216.305,311.515 216.972,328.515 218,345.5C 238.285,356.723 258.451,368.056 278.5,379.5C 298.772,368.404 318.939,357.07 339,345.5C 340.028,328.515 340.695,311.515 341,294.5C 409.796,253.852 478.963,213.852 548.5,174.5 Z"/></g>
<g><path style="opacity:0.31" fill="#171717" d="M 548.5,174.5 C 549.302,173.115 549.969,173.282 550.5,175C 550.43,175.765 550.097,176.265 549.5,176.5C 549.672,175.508 549.338,174.842 548.5,174.5 Z"/></g>
<g><path style="opacity:0.925" fill="#000000" d="M 274.5,255.5 C 277.187,255.336 279.854,255.503 282.5,256C 298.242,264.798 313.742,273.965 329,283.5C 329.667,288.167 329.667,292.833 329,297.5C 327.534,299.325 325.701,299.825 323.5,299C 320.595,297.714 317.595,296.714 314.5,296C 305.035,290.516 295.702,284.849 286.5,279C 276.627,276.432 267.96,278.599 260.5,285.5C 258.895,288.58 259.562,291.08 262.5,293C 268.66,295.577 274.327,298.91 279.5,303C 286.735,305.618 293.401,309.284 299.5,314C 306.833,317.667 314.167,321.333 321.5,325C 323.911,326.955 326.411,328.789 329,330.5C 329.667,334.167 329.667,337.833 329,341.5C 328.5,342 328,342.5 327.5,343C 313.218,350.967 299.218,359.301 285.5,368C 280.818,369.872 276.152,369.872 271.5,368C 257.761,359.269 243.761,350.935 229.5,343C 229,342.5 228.5,342 228,341.5C 227.333,336.167 227.333,330.833 228,325.5C 229.466,323.675 231.299,323.175 233.5,324C 246.068,330.893 258.401,338.226 270.5,346C 275.833,349.333 281.167,349.333 286.5,346C 289.781,343.445 293.281,341.278 297,339.5C 297.965,336.637 297.298,334.304 295,332.5C 272.463,320.321 250.13,307.654 228,294.5C 227.333,290.833 227.333,287.167 228,283.5C 228.833,282.667 229.667,281.833 230.5,281C 245.688,273.245 260.355,264.745 274.5,255.5 Z"/></g>
<g><path style="opacity:0.944" fill="#000000" d="M 85.5,288.5 C 119.408,298.861 153.408,308.694 187.5,318C 188.469,322.737 188.803,327.57 188.5,332.5C 164.157,332.568 139.824,332.735 115.5,333C 114.584,332.626 113.75,332.126 113,331.5C 109.112,324.28 104.445,317.614 99,311.5C 98.5291,309.754 97.8624,308.087 97,306.5C 91.8802,301.246 88.0468,295.246 85.5,288.5 Z"/></g>
<g><path style="opacity:0.945" fill="#000000" d="M 468.5,288.5 C 469.5,288.5 470.5,288.5 471.5,288.5C 470.226,292.381 468.393,296.048 466,299.5C 457.946,309.73 450.446,320.397 443.5,331.5C 442.975,332.192 442.308,332.692 441.5,333C 417.508,332.857 393.508,332.524 369.5,332C 368.368,327.587 368.201,323.087 369,318.5C 394.976,310.398 421.142,302.898 447.5,296C 454.712,293.765 461.712,291.265 468.5,288.5 Z"/></g>
<g><path style="opacity:0.926" fill="#000000" d="M 182.5,342.5 C 184.5,342.5 186.5,342.5 188.5,342.5C 188.5,348.167 188.5,353.833 188.5,359.5C 186.801,359.34 185.134,359.506 183.5,360C 172.217,365.576 160.884,370.909 149.5,376C 147.527,376.495 145.527,376.662 143.5,376.5C 143.649,375.448 143.483,374.448 143,373.5C 137.171,367.161 132.338,360.161 128.5,352.5C 128.709,351.914 129.043,351.414 129.5,351C 147.47,349.226 165.137,346.393 182.5,342.5 Z"/></g>
<g><path style="opacity:0.925" fill="#000000" d="M 369.5,342.5 C 384.881,344.678 400.214,347.178 415.5,350C 419.486,350.499 423.486,350.666 427.5,350.5C 427.66,352.199 427.494,353.866 427,355.5C 422.384,363.272 417.218,370.606 411.5,377.5C 397.618,371.272 383.618,365.105 369.5,359C 368.189,353.5 368.189,348 369.5,342.5 Z"/></g>
</svg>
